<svg xmlns="http://www.w3.org/2000/svg" viewBox="0 0 64 64">
  <rect width="64" height="64" rx="14" fill="#14181a"/>
  <path d="M32 14 L20 6 L23 18 Z" fill="#4fd1ae"/>
  <path d="M32 14 L44 6 L41 18 Z" fill="#4fd1ae"/>
  <path d="M32 14 C20 14 13 22 13 32 C13 42 21 50 32 50 C43 50 51 42 51 32 C51 22 44 14 32 14 Z" fill="#4fd1ae"/>
  <path d="M32 21 C24 21 19 27 19 33 C19 40 25 45 32 45 C39 45 45 40 45 33 C45 27 40 21 32 21 Z" fill="#e8eceb"/>
  <ellipse cx="25" cy="30" rx="3.4" ry="4.2" fill="#14181a"/>
  <ellipse cx="39" cy="30" rx="3.4" ry="4.2" fill="#14181a"/>
  <circle cx="25.8" cy="28.5" r="1.1" fill="#ffffff"/>
  <circle cx="39.8" cy="28.5" r="1.1" fill="#ffffff"/>
  <path d="M32 34 L28 39 L36 39 Z" fill="#14181a"/>
  <path d="M32 39 L32 41" stroke="#14181a" stroke-width="1.6" stroke-linecap="round"/>
  <path d="M32 41 C29.5 43.5 26 43.5 24 41.5" stroke="#14181a" stroke-width="1.6" fill="none" stroke-linecap="round"/>
  <path d="M32 41 C34.5 43.5 38 43.5 40 41.5" stroke="#14181a" stroke-width="1.6" fill="none" stroke-linecap="round"/>
</svg>
